<?xml version="1.0" standalone="no"?>
<!DOCTYPE svg PUBLIC "-//W3C//DTD SVG 20010904//EN"
 "http://www.w3.org/TR/2001/REC-SVG-20010904/DTD/svg10.dtd">
<svg version="1.0" xmlns="http://www.w3.org/2000/svg"
 width="713.000000pt" height="713.000000pt" viewBox="0 0 713.000000 713.000000"
 preserveAspectRatio="xMidYMid meet">
<metadata>
Created by potrace 1.14, written by Peter Selinger 2001-2017
</metadata>
<g transform="translate(0.000000,713.000000) scale(0.100000,-0.100000)"
fill="#000000" stroke="none">
<path d="M2290 7040 c-30 -11 -61 -19 -68 -20 -26 0 -155 -71 -216 -117 -150
-115 -233 -238 -295 -436 -31 -98 -31 -336 0 -434 48 -152 116 -270 209 -363
71 -71 258 -189 302 -190 7 -1 38 -9 68 -20 45 -16 82 -19 210 -19 128 0 165
3 210 19 30 11 61 19 68 20 15 0 154 68 162 79 3 3 24 19 47 34 139 95 240
241 302 440 31 98 31 336 0 434 -62 199 -163 345 -302 440 -23 15 -44 31 -47
34 -8 11 -147 79 -162 79 -7 1 -38 9 -68 20 -45 16 -82 19 -210 19 -128 0
-165 -3 -210 -19z"/>
<path d="M5067 6496 c-44 -27 -97 -76 -97 -89 0 -5 -9 -20 -20 -34 -17 -22
-20 -41 -20 -122 0 -80 4 -100 20 -121 11 -14 20 -28 20 -33 0 -12 62 -77 74
-77 6 0 22 -9 36 -20 21 -16 41 -20 120 -20 79 0 99 4 120 20 14 11 30 20 36
20 12 0 74 65 74 77 0 5 9 19 20 33 16 21 20 41 20 121 0 81 -3 100 -20 122
-11 14 -20 29 -20 34 0 13 -59 66 -101 91 -30 19 -52 22 -130 22 -81 -1 -99
-4 -132 -24z"/>
<path d="M2290 4070 c-30 -11 -61 -19 -68 -20 -26 0 -155 -71 -216 -117 -150
-115 -233 -238 -295 -436 -31 -98 -31 -336 0 -434 48 -152 116 -270 209 -363
71 -71 258 -189 302 -190 7 -1 38 -9 68 -20 80 -28 340 -28 420 0 30 11 61 19
68 20 15 0 154 68 162 79 3 3 24 19 47 34 139 95 240 241 302 440 31 98 31
336 0 434 -62 199 -163 345 -302 440 -23 15 -44 31 -47 34 -8 11 -147 79 -162
79 -7 1 -38 9 -68 20 -45 16 -82 19 -210 19 -128 0 -165 -3 -210 -19z"/>
<path d="M5067 3526 c-44 -27 -97 -76 -97 -89 0 -5 -9 -20 -20 -34 -17 -22
-20 -41 -20 -122 0 -80 4 -100 20 -121 11 -14 20 -28 20 -33 0 -12 62 -77 74
-77 6 0 22 -9 36 -20 21 -16 41 -20 120 -20 79 0 99 4 120 20 14 11 30 20 36
20 12 0 74 65 74 77 0 5 9 19 20 33 16 21 20 41 20 121 0 81 -3 100 -20 122
-11 14 -20 29 -20 34 0 13 -59 66 -101 91 -30 19 -52 22 -130 22 -81 -1 -99
-4 -132 -24z"/>
<path d="M2367 556 c-44 -27 -97 -76 -97 -89 0 -5 -9 -20 -20 -34 -17 -22 -20
-41 -20 -122 0 -80 4 -100 20 -121 11 -14 20 -28 20 -33 0 -12 62 -77 74 -77
6 0 22 -9 36 -20 21 -16 41 -20 120 -20 79 0 99 4 120 20 14 11 30 20 36 20
12 0 74 65 74 77 0 5 9 19 20 33 16 21 20 41 20 121 0 81 -3 100 -20 122 -11
14 -20 29 -20 34 0 13 -59 66 -101 91 -30 19 -52 22 -130 22 -81 -1 -99 -4
-132 -24z"/>
<path d="M5067 556 c-44 -27 -97 -76 -97 -89 0 -5 -9 -20 -20 -34 -17 -22 -20
-41 -20 -122 0 -80 4 -100 20 -121 11 -14 20 -28 20 -33 0 -12 62 -77 74 -77
6 0 22 -9 36 -20 21 -16 41 -20 120 -20 79 0 99 4 120 20 14 11 30 20 36 20
12 0 74 65 74 77 0 5 9 19 20 33 16 21 20 41 20 121 0 81 -3 100 -20 122 -11
14 -20 29 -20 34 0 13 -59 66 -101 91 -30 19 -52 22 -130 22 -81 -1 -99 -4
-132 -24z"/>
</g>
</svg>
